<svg xmlns="http://www.w3.org/2000/svg" width="780" height="440" viewBox="0 0 780 440" role="img" aria-label="TwoApple dashboard placeholder">
  <rect x="44" y="34" width="612" height="360" rx="18" fill="#111827"/>
  <rect x="62" y="58" width="576" height="306" rx="8" fill="#f8fafc"/>
  <rect x="62" y="58" width="90" height="306" fill="#10213a"/>
  <text x="180" y="106" fill="#0b2145" font-family="Arial, sans-serif" font-size="22" font-weight="700">ダッシュボード</text>
  <g fill="#fff">
    <rect x="180" y="128" width="104" height="70" rx="8"/>
    <rect x="300" y="128" width="104" height="70" rx="8"/>
    <rect x="420" y="128" width="104" height="70" rx="8"/>
    <rect x="540" y="128" width="74" height="70" rx="8"/>
  </g>
  <path d="M188 286c45-58 75 22 120-18s78 12 126-30 80 8 142-38" stroke="#2f80ed" stroke-width="4" fill="none"/>
  <path d="M188 312c48-30 78 4 118-20s88 16 126-12 74 10 144-18" stroke="#35c66b" stroke-width="4" fill="none"/>
  <circle cx="580" cy="274" r="48" fill="none" stroke="#42d1c3" stroke-width="16"/>
  <path d="M580 226a48 48 0 0 1 45 64" stroke="#8d6bff" stroke-width="16" fill="none"/>
  <rect x="626" y="164" width="112" height="204" rx="22" fill="#111827"/>
  <rect x="638" y="184" width="88" height="164" rx="12" fill="#fff"/>
  <circle cx="682" cy="278" r="28" fill="none" stroke="#42d1c3" stroke-width="10"/>
  <path d="M682 250a28 28 0 0 1 24 42" stroke="#8d6bff" stroke-width="10" fill="none"/>
  <text x="390" y="412" fill="#52627a" text-anchor="middle" font-family="Arial, sans-serif" font-size="14">replace with actual dashboard image</text>
</svg>
